<svg width="8" height="8" xmlns="http://www.w3.org/2000/svg"><g fill="none" fill-rule="evenodd"><circle fill="#FFF" cx="4" cy="4" r="4"/><path d="M4 0C1.795 0 0 1.795 0 4s1.795 4 4 4 4-1.795 4-4-1.795-4-4-4zm0 7.48C2.173 7.48.52 5.827.52 4S2.173.52 4 .52 7.48 2.173 7.48 4 5.827 7.48 4 7.48z" fill="#FF3F3F" fill-rule="nonzero"/><path d="M5.595 2.565a.201.201 0 00-.16-.16c-.087-.014-.16 0-.218.058l-1.22 1.223-1.205-1.208a.233.233 0 00-.16-.073.233.233 0 00-.16.073.234.234 0 00-.072.16c0 .058.029.117.073.16l1.205 1.208-1.205 1.208c-.058.059-.088.146-.058.219a.223.223 0 00.16.16c.072.014.159 0 .217-.058l1.205-1.209 1.206 1.209a.228.228 0 00.32 0 .229.229 0 000-.32L4.316 4.005l1.205-1.208a.253.253 0 00.073-.233z" fill="#FF3F3F" fill-rule="nonzero"/></g></svg>