<svg width="12" height="12" xmlns="http://www.w3.org/2000/svg"><g fill="none" fill-rule="evenodd"><path d="M12 12V0H0v12z"/><g transform="rotate(90 6 6)"><rect width="12" height="12" rx="2"/><rect width="12" height="12" rx="4"/><path d="M9.717 5.625H1.892a.393.393 0 00-.282.105.36.36 0 00-.11.27c-.004.1.036.198.11.27a.39.39 0 00.282.105h7.825A.39.39 0 0010 6.27a.357.357 0 00.11-.27.36.36 0 00-.11-.27.39.39 0 00-.282-.105zM9.56 6L6.306 9.105a.384.384 0 00-.11.27c-.001.1.041.195.116.263a.384.384 0 00.275.112.419.419 0 00.282-.105L10.39 6.27a.387.387 0 000-.54L6.87 2.355a.419.419 0 00-.282-.105.384.384 0 00-.275.111.353.353 0 00-.116.264c-.001.1.038.197.11.27L9.558 6z" fill="#6CB7EE" fill-rule="nonzero"/></g></g></svg>