<svg width="16" height="16" xmlns="http://www.w3.org/2000/svg"><g fill="none" fill-rule="evenodd"><rect width="16" height="16" rx="2"/><path d="M3.412 1.447A8.011 8.011 0 00.015 8.478a.712.712 0 001.42-.086 6.59 6.59 0 014.88-6.748 6.57 6.57 0 016.39 1.76l-1.11.598 3.449 2.13.123-4.05L14 2.708A8.018 8.018 0 0010.612.44 7.968 7.968 0 005.951.27a7.95 7.95 0 00-2.54 1.178zM.832 13.919l1.167-.627a8 8 0 0010.588 1.263 8.01 8.01 0 003.399-7.023.712.712 0 00-1.42.085c.184 3.105-1.87 5.94-4.882 6.74a6.57 6.57 0 01-6.39-1.762l1.11-.597-3.449-2.13-.123 4.05z" fill="#999" fill-rule="nonzero"/></g></svg>