<?xml version="1.0" encoding="UTF-8"?>
<svg width="10px" height="10px" viewBox="0 0 10 10" version="1.1" xmlns="http://www.w3.org/2000/svg" xmlns:xlink="http://www.w3.org/1999/xlink">
    <title>编组 7备份 2</title>
    <g id="页面-1" stroke="none" stroke-width="1" fill="none" fill-rule="evenodd">
        <g id="制作页-音量调节" transform="translate(-1113, -294)">
            <g id="编组-7备份-2" transform="translate(1118, 299) scale(1, -1) rotate(-180) translate(-1118, -299)translate(1113, 294)">
                <rect id="矩形" x="0" y="0" width="10" height="10" rx="1"></rect>
                <g id="jiantouyou" transform="translate(5, 5) rotate(-270) translate(-5, -5)translate(3, 1)" fill="#333333" fill-rule="nonzero">
                    <path d="M0.229763816,8 C0.171061683,8 0.112359551,7.97664376 0.0674157303,7.92895809 C-0.0224719101,7.83358676 -0.0224719101,7.67982483 0.0674157303,7.5844535 L3.44554001,4.00024329 L0.0674157303,0.416033088 C-0.0224719101,0.32066176 -0.0224719101,0.166899824 0.0674157303,0.0715284958 C0.157303371,-0.0238428319 0.30222426,-0.0238428319 0.392111901,0.0715284958 L3.93258427,3.827991 C4.02247191,3.92336233 4.02247191,4.07712426 3.93258427,4.17249559 L0.392111901,7.92895809 C0.347168081,7.97664376 0.288465948,8 0.229763816,8 Z" id="路径"></path>
                </g>
            </g>
        </g>
    </g>
</svg>