<?xml version="1.0" encoding="UTF-8"?>
<svg width="12px" height="12px" viewBox="0 0 12 12" version="1.1" xmlns="http://www.w3.org/2000/svg" xmlns:xlink="http://www.w3.org/1999/xlink">
    <title>编组 13备份 2</title>
    <g id="页面-1" stroke="none" stroke-width="1" fill="none" fill-rule="evenodd">
        <g id="制作页-别名" transform="translate(-1159, -322)">
            <g id="编组-39" transform="translate(1113, 300)">
                <g id="编组-13备份-2" transform="translate(46, 22)">
                    <rect id="矩形" x="0" y="0" width="12" height="12" rx="2"></rect>
                    <g id="编组-13备份">
                        <rect id="矩形" x="0" y="0" width="12" height="12" rx="2"></rect>
                        <path d="M8.5478424,1.5 C9.35900174,1.5 10.09164,1.85595681 10.6227846,2.42539903 C11.1662879,3.00809121 11.5,3.81356606 11.5,4.70107239 C11.5,5.78562446 11.0038136,6.5240804 10.6122441,7.12763073 C9.38618775,9.02039344 6.35276971,11.3227618 6.22011871,11.4225647 C5.30045134,11.0487564 2.54382356,8.91225768 1.40211863,7.14875306 C1.01974957,6.56151926 0.5,5.79445366 0.5,4.70107239 C0.5,3.81448185 0.834865725,3.00987061 1.37817944,2.42738174 C1.91021034,1.85698922 2.6433493,1.5 3.4521576,1.5 C4.27845378,1.5 5.06370614,1.87538216 5.62646911,2.52248179 C5.77581564,2.69420965 5.90403701,2.87880024 6.00974283,3.07239991 C6.11152558,2.87771814 6.23675524,2.69196231 6.38443632,2.51852998 C6.93964673,1.8665072 7.71738185,1.5 8.5478424,1.5 Z" id="路径备份-2" fill="#FF5BA3"></path>
                    </g>
                </g>
            </g>
        </g>
    </g>
</svg>